<svg width="16" height="13" viewBox="0 0 16 13" fill="none" xmlns="http://www.w3.org/2000/svg">
<path d="M5.56669 9.65L14.0417 1.175C14.2417 0.975 14.4792 0.875 14.7542 0.875C15.0292 0.875 15.2667 0.975 15.4667 1.175C15.6667 1.375 15.7667 1.6125 15.7667 1.8875C15.7667 2.1625 15.6667 2.4 15.4667 2.6L6.26669 11.8C6.06669 12 5.83335 12.1 5.56669 12.1C5.30002 12.1 5.06669 12 4.86669 11.8L0.566687 7.5C0.366687 7.3 0.270853 7.0625 0.279187 6.7875C0.28752 6.5125 0.391687 6.275 0.591687 6.075C0.791687 5.875 1.02919 5.775 1.30419 5.775C1.57919 5.775 1.81669 5.875 2.01669 6.075L5.56669 9.65Z" fill="white"/>
</svg>
